<svg t="1680067212539" class="icon" viewBox="0 0 1024 1024" version="1.1" xmlns="http://www.w3.org/2000/svg" p-id="3600" width="200" height="200"><path d="M682.666667 384V298.666667h-170.666667v234.666666c-17.92-13.226667-39.68-21.333333-64-21.333333A106.666667 106.666667 0 0 0 341.333333 618.666667a106.666667 106.666667 0 0 0 106.666667 106.666666 106.666667 106.666667 0 0 0 106.666667-106.666666V384h128m-170.666667-298.666667a426.666667 426.666667 0 0 1 426.666667 426.666667 426.666667 426.666667 0 0 1-426.666667 426.666667A426.666667 426.666667 0 0 1 85.333333 512 426.666667 426.666667 0 0 1 512 85.333333z" fill="#EF5350" p-id="3601"></path></svg>