<svg xmlns="http://www.w3.org/2000/svg" width="200" height="200" class="icon" viewBox="0 0 1024 1024"><path fill="#d81e06" d="M512 653.784c-52.2 0-94.526 42.32-94.526 94.518 0 52.213 42.326 94.526 94.526 94.526 52.198 0 94.518-42.313 94.518-94.526 0-52.198-42.32-94.518-94.518-94.518zm464.734 275.69H808.219C938.753 836.687 1024 684.343 1024 512 1024 229.236 794.764 0 512 0S0 229.236 0 512s229.236 512 512 512h464.734c26.106 0 47.266-21.16 47.266-47.266 0-26.1-21.16-47.26-47.266-47.26zm-464.699 0h-.053C281.424 929.468 94.524 742.564 94.524 512S281.436 94.524 512 94.524 929.474 281.436 929.474 512c0 230.545-186.885 417.451-417.439 417.474zm-236.345-512c-52.198 0-94.518 42.326-94.518 94.526 0 52.198 42.313 94.518 94.518 94.518 52.212 0 94.526-42.32 94.526-94.518 0-52.2-42.326-94.526-94.526-94.526zm275.69 102.404c0-21.749-17.626-39.387-39.38-39.387-21.75 0-39.388 17.638-39.388 39.387 0 21.743 17.639 39.382 39.388 39.382 21.75 0 39.38-17.639 39.38-39.382zm189.05-102.404c-52.198 0-94.524 42.326-94.524 94.526 0 52.198 42.313 94.518 94.524 94.518 52.206 0 94.52-42.32 94.52-94.518 0-52.2-42.32-94.526-94.52-94.526zM512 181.172c-52.2 0-94.526 42.32-94.526 94.518 0 52.212 42.326 94.526 94.526 94.526 52.198 0 94.518-42.314 94.518-94.526 0-52.198-42.32-94.518-94.518-94.518zm0 0"/></svg>