<svg xmlns="http://www.w3.org/2000/svg" width="200" height="200" class="icon" viewBox="0 0 1215 1024"><path fill="#d81e06" d="M577.044 1024a43.32 43.32 0 0 1-43.32-43.32V43.512a43.32 43.32 0 0 1 86.64 0V980.68a43.32 43.32 0 0 1-43.32 43.32zm-266.83-213.4a43.32 43.32 0 0 1-43.384-43.256V231.06a43.32 43.32 0 0 1 86.64 0v536.22a43.32 43.32 0 0 1-43.32 43.32zm548.313 0a43.32 43.32 0 0 1-43.32-43.256V231.06a43.32 43.32 0 0 1 86.64 0v536.22a43.32 43.32 0 0 1-43.32 43.32zM43.32 643.527A43.32 43.32 0 0 1 0 600.207V454.698a43.32 43.32 0 0 1 86.64 0v145.51a43.32 43.32 0 0 1-43.32 43.319zm1073.718 0a43.32 43.32 0 0 1-43.32-43.32V454.698a43.32 43.32 0 0 1 86.576 0v145.51a43.32 43.32 0 0 1-43.256 43.319z"/></svg>