<svg  t="1678698788188" class="icon" viewBox="0 0 1215 1024" version="1.1" xmlns="http://www.w3.org/2000/svg" p-id="9770" width="200" height="200"><path d="M577.044084 1023.99936a43.31985 43.31985 0 0 1-43.319851-43.31985V43.511814a43.31985 43.31985 0 0 1 86.639701 0v937.167696a43.31985 43.31985 0 0 1-43.31985 43.31985z m-266.829803-213.399854a43.31985 43.31985 0 0 1-43.383838-43.255863V231.060532a43.31985 43.31985 0 0 1 86.639701 0v536.219124a43.31985 43.31985 0 0 1-43.319851 43.31985z m548.312849 0a43.31985 43.31985 0 0 1-43.319851-43.255863V231.060532a43.31985 43.31985 0 0 1 86.639701 0v536.219124a43.31985 43.31985 0 0 1-43.31985 43.31985zM43.32049 643.526936A43.31985 43.31985 0 0 1 0.00064 600.207086V454.69846a43.31985 43.31985 0 0 1 86.639701 0v145.508626a43.31985 43.31985 0 0 1-43.319851 43.31985z m1073.718007 0a43.31985 43.31985 0 0 1-43.31985-43.31985V454.69846a43.31985 43.31985 0 0 1 86.575713 0v145.508626a43.31985 43.31985 0 0 1-43.255863 43.31985z" fill="#d81e06" p-id="9771"></path></svg>