<svg xmlns="http://www.w3.org/2000/svg" width="95" height="88" fill="none" viewBox="0 0 95 88"><path fill="#FFD21E" d="M47.212 76.5c19.192 0 34.75-15.558 34.75-34.75S66.404 7 47.212 7s-34.75 15.558-34.75 34.75S28.02 76.5 47.212 76.5Z"/><path fill="#FF9D0B" d="M81.962 41.75C81.962 22.558 66.404 7 47.212 7s-34.75 15.558-34.75 34.75S28.02 76.5 47.212 76.5s34.75-15.558 34.75-34.75Zm-73.5 0C8.462 20.349 25.81 3 47.212 3c21.4 0 38.75 17.349 38.75 38.75S68.612 80.5 47.212 80.5c-21.401 0-38.75-17.349-38.75-38.75Z"/><path fill="#3A3B45" d="M58.502 32.291c1.275.45 1.782 3.07 3.07 2.386a5 5 0 1 0-6.763-2.067c.612 1.15 2.554-.72 3.693-.319Zm-23.557 0c-1.274.45-1.781 3.07-3.068 2.386a5 5 0 1 1 6.762-2.067c-.612 1.15-2.554-.72-3.694-.319Zm12.017 23.998c9.828 0 13-8.763 13-13.263 0-2.339-1.572-1.602-4.09-.356-2.327 1.152-5.462 2.74-8.91 2.74-7.18 0-13-6.884-13-2.384s3.171 13.263 13 13.263Z"/><mask id="a" width="27" height="16" x="33" y="41" mask-type="alpha" maskUnits="userSpaceOnUse"><path fill="#fff" d="M46.962 56.289c9.828 0 13-8.763 13-13.263 0-2.339-1.572-1.602-4.09-.356-2.327 1.152-5.462 2.74-8.91 2.74-7.18 0-13-6.884-13-2.384s3.171 13.263 13 13.263Z"/></mask><g mask="url(#a)"><path fill="#F94040" d="M47.212 66.5a8.673 8.673 0 0 0 2.643-16.936c-.833-.266-1.721 2.598-2.643 2.598-.861 0-1.693-2.882-2.479-2.648A8.673 8.673 0 0 0 47.212 66.5Z"/></g><path fill="#FF9D0B" d="M70.712 37a3.25 3.25 0 1 0 0-6.5 3.25 3.25 0 0 0 0 6.5Zm-46.5 0a3.25 3.25 0 1 0 0-6.5 3.25 3.25 0 0 0 0 6.5Zm-6.688 11c-1.62 0-3.066.665-4.075 1.871-.624.747-1.276 1.951-1.33 3.754-.678-.195-1.331-.304-1.941-.304-1.55 0-2.95.594-3.94 1.673-1.272 1.385-1.837 3.087-1.591 4.79.117.811.388 1.538.793 2.211-.854.691-1.483 1.653-1.787 2.81a5.873 5.873 0 0 0 .792 4.742 5.457 5.457 0 0 0-.228.394c-.766 1.454-.815 3.097-.14 4.627 1.026 2.319 3.573 4.146 8.519 6.107 3.077 1.22 5.892 2 5.917 2.007 4.068 1.055 7.747 1.591 10.932 1.591 5.854 0 10.045-1.793 12.457-5.329 3.882-5.694 3.327-10.902-1.696-15.922-2.78-2.778-4.628-6.874-5.013-7.773-.776-2.662-2.828-5.621-6.24-5.621-.287 0-.577.023-.863.068-1.494.235-2.8 1.095-3.733 2.389-1.007-1.252-1.985-2.248-2.87-2.81C20.153 48.429 18.82 48 17.524 48Zm0 4c.51 0 1.133.217 1.82.653 2.133 1.353 6.249 8.428 7.756 11.18.505.922 1.368 1.312 2.145 1.312 1.542 0 2.746-1.533.14-3.481-3.916-2.931-2.542-7.722-.672-8.017a1.54 1.54 0 0 1 .24-.019c1.7 0 2.45 2.93 2.45 2.93s2.199 5.52 5.975 9.293c3.776 3.774 3.97 6.803 1.219 10.839-1.877 2.752-5.47 3.583-9.152 3.583-3.82 0-7.734-.894-9.928-1.463-.108-.028-13.451-3.797-11.761-7.005.284-.539.752-.755 1.34-.755 2.38 0 6.71 3.542 8.57 3.542.417 0 .71-.177.83-.609.793-2.845-12.057-4.041-10.974-8.162.19-.729.709-1.025 1.437-1.024 3.145 0 10.2 5.531 11.68 5.531.113 0 .194-.033.238-.103.74-1.196.335-2.031-4.888-5.192-5.223-3.162-8.89-5.064-6.804-7.334.24-.262.58-.378.993-.378 3.17.001 10.663 6.819 10.663 6.819s2.022 2.103 3.245 2.103c.28 0 .52-.111.682-.385.867-1.462-8.053-8.222-8.556-11.011-.341-1.89.239-2.847 1.312-2.847Z"/><path fill="#FFD21E" d="M38.597 76.69c2.752-4.036 2.557-7.065-1.22-10.84-3.775-3.772-5.973-9.292-5.973-9.292s-.821-3.206-2.691-2.911c-1.87.295-3.243 5.086.674 8.017 3.917 2.93-.78 4.92-2.287 2.169-1.507-2.752-5.622-9.827-7.756-11.18-2.133-1.353-3.635-.595-3.132 2.194.503 2.789 9.424 9.549 8.556 11.012-.868 1.462-3.927-1.72-3.927-1.72s-9.572-8.71-11.656-6.44c-2.084 2.27 1.58 4.172 6.804 7.334 5.224 3.16 5.629 3.996 4.888 5.192C20.135 71.42 8.605 61.7 7.522 65.82c-1.082 4.12 11.767 5.317 10.974 8.162-.793 2.846-9.051-5.385-10.74-2.178-1.69 3.208 11.653 6.977 11.76 7.005 4.31 1.118 15.257 3.487 19.08-2.12Z"/><path fill="#FF9D0B" d="M77.4 48c1.619 0 3.066.665 4.075 1.871.624.747 1.276 1.951 1.329 3.754.679-.195 1.332-.304 1.942-.304 1.55 0 2.95.594 3.94 1.673 1.272 1.385 1.837 3.087 1.59 4.79a5.848 5.848 0 0 1-.792 2.211c.854.691 1.483 1.653 1.787 2.81a5.873 5.873 0 0 1-.792 4.742c.08.127.157.259.228.394.766 1.454.815 3.097.139 4.627-1.025 2.319-3.572 4.146-8.518 6.107-3.077 1.22-5.892 2-5.917 2.007-4.068 1.055-7.747 1.591-10.932 1.591-5.854 0-10.045-1.793-12.457-5.329-3.882-5.694-3.327-10.902 1.696-15.922 2.78-2.778 4.628-6.874 5.013-7.773.776-2.662 2.828-5.621 6.239-5.621.288 0 .578.023.864.068 1.494.235 2.8 1.095 3.733 2.389 1.007-1.252 1.985-2.248 2.87-2.81C74.77 48.429 76.104 48 77.4 48Zm0 4c-.51 0-1.133.217-1.82.653-2.133 1.353-6.25 8.428-7.756 11.18-.505.922-1.368 1.312-2.145 1.312-1.542 0-2.746-1.533-.141-3.481 3.917-2.931 2.543-7.722.673-8.017a1.543 1.543 0 0 0-.241-.019c-1.7 0-2.45 2.93-2.45 2.93s-2.198 5.52-5.974 9.293c-3.776 3.774-3.971 6.803-1.22 10.839 1.878 2.752 5.47 3.583 9.153 3.583 3.819 0 7.734-.894 9.928-1.463.108-.028 13.45-3.797 11.76-7.005-.283-.539-.751-.755-1.34-.755-2.38 0-6.71 3.542-8.57 3.542-.416 0-.71-.177-.83-.609-.792-2.845 12.058-4.041 10.975-8.162-.191-.729-.71-1.025-1.437-1.024-3.145 0-10.201 5.531-11.68 5.531-.113 0-.194-.033-.238-.103-.741-1.196-.335-2.031 4.888-5.192 5.223-3.162 8.889-5.064 6.804-7.334-.24-.262-.58-.378-.993-.378-3.171.001-10.663 6.819-10.663 6.819s-2.022 2.103-3.245 2.103a.743.743 0 0 1-.682-.385c-.867-1.462 8.053-8.222 8.556-11.011.34-1.89-.24-2.847-1.312-2.847Z"/><path fill="#FFD21E" d="M56.327 76.69c-2.752-4.036-2.557-7.065 1.22-10.84 3.775-3.772 5.973-9.292 5.973-9.292s.821-3.206 2.691-2.911c1.87.295 3.243 5.086-.674 8.017-3.917 2.93.78 4.92 2.287 2.169 1.507-2.752 5.622-9.827 7.756-11.18 2.133-1.353 3.635-.595 3.132 2.194-.503 2.789-9.424 9.549-8.556 11.012.868 1.462 3.927-1.72 3.927-1.72s9.572-8.71 11.656-6.44c2.084 2.27-1.58 4.172-6.804 7.334-5.224 3.16-5.629 3.996-4.888 5.192.742 1.196 12.272-8.525 13.355-4.404 1.082 4.12-11.767 5.317-10.974 8.162.793 2.846 9.051-5.385 10.74-2.178 1.69 3.208-11.653 6.977-11.76 7.005-4.31 1.118-15.257 3.487-19.08-2.12Z"/></svg>